<?xml version="1.0" encoding="UTF-8" standalone="no"?>
<!-- Created with Inkscape (http://www.inkscape.org/) -->

<svg
   xmlns:dc="http://purl.org/dc/elements/1.1/"
   xmlns:cc="http://creativecommons.org/ns#"
   xmlns:rdf="http://www.w3.org/1999/02/22-rdf-syntax-ns#"
   xmlns:svg="http://www.w3.org/2000/svg"
   xmlns="http://www.w3.org/2000/svg"
   xmlns:sodipodi="http://sodipodi.sourceforge.net/DTD/sodipodi-0.dtd"
   xmlns:inkscape="http://www.inkscape.org/namespaces/inkscape"
   version="1.1"
   id="svg10"
   xml:space="preserve"
   width="433.33334"
   height="433.33334"
   viewBox="0 0 433.33334 433.33334"
   sodipodi:docname="logoPhone.svg"
   inkscape:version="0.92.0 r15299"
   inkscape:export-filename="F:\Portfolio_OlivierCherif_25\images\logoPhone.png"
   inkscape:export-xdpi="96"
   inkscape:export-ydpi="96"><metadata
     id="metadata16"><rdf:RDF><cc:Work
         rdf:about=""><dc:format>image/svg+xml</dc:format><dc:type
           rdf:resource="http://purl.org/dc/dcmitype/StillImage" /><dc:title /></cc:Work></rdf:RDF></metadata><defs
     id="defs14"><inkscape:path-effect
       effect="mirror_symmetry"
       start_point="141.16186,147.85762"
       end_point="141.16186,246.44682"
       center_point="141.16186,197.15222"
       id="path-effect3754"
       is_visible="true"
       mode="free"
       discard_orig_path="false"
       fuse_paths="false"
       oposite_fuse="false" /><clipPath
       clipPathUnits="userSpaceOnUse"
       id="clipPath26"><path
         d="M 0,325 H 325 V 0 H 0 Z"
         id="path24"
         inkscape:connector-curvature="0" /></clipPath><clipPath
       clipPathUnits="userSpaceOnUse"
       id="clipPath42"><path
         d="M 0,325 H 325 V 0 H 0 Z"
         id="path40"
         inkscape:connector-curvature="0" /></clipPath></defs><sodipodi:namedview
     pagecolor="#ffffff"
     bordercolor="#666666"
     borderopacity="1"
     objecttolerance="10"
     gridtolerance="10"
     guidetolerance="10"
     inkscape:pageopacity="0"
     inkscape:pageshadow="2"
     inkscape:window-width="1920"
     inkscape:window-height="1009"
     id="namedview12"
     showgrid="false"
     showguides="false"
     inkscape:zoom="1.0182692"
     inkscape:cx="-102.0653"
     inkscape:cy="227.59194"
     inkscape:window-x="-8"
     inkscape:window-y="-8"
     inkscape:window-maximized="1"
     inkscape:current-layer="g20" /><g
     id="g18"
     inkscape:groupmode="layer"
     inkscape:label="logoPhone"
     transform="matrix(1.3333333,0,0,-1.3333333,0,433.33333)"><g
       id="g20"
       transform="matrix(0.98718733,0,0,0.98718733,2.0897236,1.6582657)"><g
         id="g22"
         clip-path="url(#clipPath26)"
         style="fill:#91b993;fill-opacity:1;stroke:none"
         inkscape:export-xdpi="96"
         inkscape:export-ydpi="96"><g
           id="g28"
           transform="translate(321.5,162.5)"
           style="fill:#91b993;fill-opacity:1;stroke:none"><path
             d="m 0,0 c 0,-87.813 -71.187,-159 -159,-159 -87.813,0 -159,71.187 -159,159 0,87.813 71.187,159 159,159 C -71.187,159 0,87.813 0,0"
             style="fill:#91b993;fill-opacity:1;fill-rule:nonzero;stroke:none"
             id="path30"
             inkscape:connector-curvature="0" /></g><g
           id="g32"
           transform="translate(321.5,162.5)"
           style="fill:#91b993;fill-opacity:1;stroke:none"><path
             d="m 0,0 c 0,-87.813 -71.187,-159 -159,-159 -87.813,0 -159,71.187 -159,159 0,87.813 71.187,159 159,159 C -71.187,159 0,87.813 0,0 Z"
             style="fill:#91b993;stroke:none;stroke-width:5;stroke-linecap:butt;stroke-linejoin:miter;stroke-miterlimit:10;stroke-dasharray:none;stroke-opacity:1;fill-opacity:1"
             id="path34"
             inkscape:connector-curvature="0" /></g></g></g><g
       id="g36"
       transform="matrix(1.1074997,0.15923853,-0.15923853,1.1074997,13.346445,-52.662088)"><g
         id="g38"
         clip-path="url(#clipPath42)"
         inkscape:transform-center-x="-120.61702"
         inkscape:transform-center-y="-66.604527"><g
           id="g44"
           transform="translate(186.6367,114.1748)" /><g
           id="g48"
           transform="rotate(1.673007,-8937.1308,5570.0326)"><path
             d="m -14.061423,-7.6161372 c 48.284,-24.1419998 78.463,-60.3549998 88.119,-119.5040028"
             style="fill:none;stroke:#ffffff;stroke-width:5;stroke-linecap:round;stroke-linejoin:miter;stroke-miterlimit:10;stroke-dasharray:none;stroke-opacity:1"
             id="path50"
             inkscape:connector-curvature="0" /></g><g
           id="g52"
           transform="rotate(1.673007,-7919.9995,5419.6962)"><path
             d="m -14.061423,-7.6161372 c 35.073,-17.5359998 56.993,-43.8399998 64.007,-86.8050038"
             style="fill:none;stroke:#ffffff;stroke-width:5;stroke-linecap:round;stroke-linejoin:miter;stroke-miterlimit:10;stroke-dasharray:none;stroke-opacity:1"
             id="path54"
             inkscape:connector-curvature="0" /></g><g
           id="g56"
           transform="rotate(1.673007,-10009.673,5584.3946)"><path
             d="M -14.061423,-7.6161372 C 49.706577,-39.500137 89.562577,-87.326137 102.31558,-165.44214"
             style="fill:none;stroke:#ffffff;stroke-width:5.00025034;stroke-linecap:round;stroke-linejoin:round;stroke-miterlimit:10;stroke-dasharray:none;stroke-opacity:1"
             id="path58"
             inkscape:connector-curvature="0" /></g></g></g><path
       style="fill:#ffffff;fill-opacity:1;stroke:#000000;stroke-width:0;stroke-linecap:butt;stroke-linejoin:round;stroke-miterlimit:4;stroke-dasharray:none;stroke-opacity:1"
       d="m 197.48695,48.518597 c 21.49554,4.252547 46.48269,46.482693 46.48269,46.482693 L 192.9845,124.13873 176.75699,107.91121 127.58246,130.7142 90.120677,93.25243 c 0,0 69.332543,-52.258194 107.366273,-44.733833 z M 90.120677,93.25243 l 37.460623,37.46293 -22.80299,49.17453 16.22752,16.22751 -29.137463,50.98514 c 0,0 -42.230203,-24.98714 -46.482691,-46.48269 C 37.861317,162.5856 90.120677,93.25243 90.120677,93.25243 Z"
       id="path3748"
       inkscape:connector-curvature="0"
       sodipodi:nodetypes="scccccscccccsc" /></g></svg>